<svg xmlns="http://www.w3.org/2000/svg" viewBox="0 0 300 300" style="enable-background:new 0 0 300 300" xml:space="preserve">
  <path d="M150 268.5c-2-1.6-15.9-13.4-23.5-29.6l-.2-.4-.4.3c-14.7 10.2-32.6 13.4-35.2 13.8-.9-2.4-7.1-19.6-5.6-37.4v-.4h-.4c-1.8.2-3.7.2-5.7.2-15.6 0-29.6-5-31.7-5.8.4-2.5 3.7-20.5 13.8-35.2l.3-.4-.4-.2C44.9 165.9 33.1 152 31.5 150c1.6-2 13.4-15.9 29.6-23.5l.4-.2-.3-.4C51 111.2 47.8 93.3 47.4 90.7c2.1-.8 16.1-5.8 31.7-5.8 1.9 0 3.8.1 5.7.2h.4v-.4c-1.5-17.8 4.7-35 5.6-37.4 2.5.4 20.5 3.6 35.2 13.8l.4.3.2-.4c7.6-16.2 21.6-27.9 23.5-29.6 2 1.6 15.9 13.4 23.5 29.6l.2.4.4-.3c14.7-10.2 32.6-13.4 35.2-13.8.9 2.4 7.1 19.6 5.6 37.4v.4h.4c1.8-.2 3.7-.2 5.7-.2 15.6 0 29.6 5 31.7 5.8-.4 2.5-3.6 20.5-13.8 35.2l-.3.4.4.2c16.2 7.6 27.9 21.6 29.6 23.5-1.6 2-13.4 15.9-29.6 23.5l-.4.2.3.4c10.2 14.7 13.4 32.6 13.8 35.2-2.1.8-16.1 5.8-31.7 5.8-1.9 0-3.8-.1-5.7-.2h-.4v.4c1.5 17.8-4.7 35-5.6 37.4-2.5-.4-20.5-3.7-35.2-13.8l-.4-.3-.2.4c-7.7 16.1-21.6 27.9-23.6 29.5z" style="fill:#8cc63f"/>
  <path d="M150 32c2.6 2.2 15.8 13.7 23.2 29.2l.4.8.7-.5c14.1-9.8 31.3-13.1 34.7-13.7 1.2 3.2 6.9 19.8 5.5 36.9l-.1.9.9-.1c1.8-.2 3.7-.2 5.6-.2 15 0 28.4 4.6 31.3 5.7-.6 3.4-3.9 20.6-13.7 34.7l-.5.7.8.4c15.6 7.3 27 20.6 29.2 23.2-2.2 2.6-13.7 15.8-29.2 23.2l-.8.4.5.7c9.8 14.1 13.1 31.3 13.7 34.7-2.9 1.1-16.3 5.7-31.3 5.7-1.9 0-3.8-.1-5.6-.2l-.9-.1.1.9c1.4 17.1-4.3 33.7-5.5 36.9-3.4-.6-20.6-3.9-34.7-13.7l-.7-.5-.4.8c-7.3 15.6-20.6 27-23.2 29.2-2.6-2.2-15.8-13.7-23.2-29.2l-.4-.8-.7.5c-14.1 9.8-31.3 13.1-34.7 13.7-1.2-3.2-6.9-19.8-5.5-36.9l.1-.9-.9.1c-1.8.2-3.7.2-5.6.2-15 0-28.4-4.6-31.3-5.7.6-3.4 3.9-20.6 13.7-34.7l.5-.7-.8-.4c-15.6-7.3-27-20.6-29.2-23.2 2.2-2.6 13.7-15.8 29.2-23.2l.8-.4-.5-.7C51.7 111.6 48.4 94.4 47.8 91c2.9-1.1 16.3-5.7 31.3-5.7 1.9 0 3.8.1 5.6.2l.9.1-.1-.9C84.1 67.6 89.8 51 91 47.8c3.4.6 20.6 3.9 34.7 13.7l.7.5.4-.8c7.4-15.5 20.6-27 23.2-29.2m0-1s-15.6 12.3-23.9 29.9C110.1 49.8 90.5 47 90.5 47s-7.3 18.4-5.7 37.8c-1.9-.2-3.8-.2-5.7-.2-17.2 0-32.1 6-32.1 6s2.8 19.6 13.9 35.6C43.3 134.4 31 150 31 150s12.3 15.6 29.9 23.9c-11.1 16-13.9 35.6-13.9 35.6s14.9 6 32.1 6c1.9 0 3.8-.1 5.7-.2-1.6 19.4 5.7 37.8 5.7 37.8s19.6-2.8 35.6-13.9C134.4 256.7 150 269 150 269s15.6-12.3 23.9-29.9c16 11.1 35.6 13.9 35.6 13.9s7.3-18.4 5.7-37.8c1.9.2 3.8.2 5.7.2 17.2 0 32.1-6 32.1-6s-2.8-19.6-13.9-35.6C256.7 165.6 269 150 269 150s-12.3-15.6-29.9-23.9c11.1-16 13.9-35.6 13.9-35.6s-14.9-6-32.1-6c-1.9 0-3.8.1-5.7.2 1.6-19.4-5.7-37.8-5.7-37.8s-19.6 2.8-35.6 13.9C165.6 43.3 150 31 150 31z"/>
  <g>
    <circle cx="150" cy="150" r="62.6" style="fill:#f7931e"/>
    <path d="M150 87.8c34.3 0 62.2 27.9 62.2 62.2s-27.9 62.2-62.2 62.2-62.2-27.9-62.2-62.2 27.9-62.2 62.2-62.2m0-.8c-34.8 0-63 28.2-63 63s28.2 63 63 63 63-28.2 63-63-28.2-63-63-63z"/>
  </g>
</svg>